<svg height="512" width="512" id="ethernet" xmlns="http://www.w3.org/2000/svg">
<g>
	<g>
		<path d="M450.226,0H61.742C27.695,0,0,27.695,0,61.742v388.484c0,34.047,27.695,61.758,61.742,61.758h388.5
			c34.047,0,61.742-27.711,61.742-61.758V61.742C511.984,27.695,484.289,0,450.226,0z M479.985,450.226
			c0,16.415-13.344,29.759-29.759,29.759H61.742c-16.399,0-29.743-13.344-29.743-29.759V61.742
			c0-16.415,13.344-29.743,29.743-29.743h388.5c16.399,0,29.743,13.328,29.743,29.743V450.226z"/>
	</g>
</g>
<g>
	<g>
		<path d="M447.986,47.998H63.998c-8.848,0-16,7.168-16,16v207.994c0,8.832,7.152,16,16,16h79.997v63.998c0,8.832,7.152,16,16,16
			h191.994c8.848,0,16-7.168,16-16v-63.998h79.997c8.848,0,16-7.168,16-16V63.998C463.986,55.166,456.834,47.998,447.986,47.998z
			 M431.987,255.992h-79.997c-8.848,0-16,7.168-16,16v63.998H175.995v-63.998c0-8.832-7.152-16-16-16H79.997V79.997h351.989V255.992
			z"/>
	</g>
</g>
<g>
	<g>
		<path d="M383.988,63.998c-8.848,0-16,7.168-16,16v79.997c0,8.832,7.152,16,16,16c8.848,0,15.999-7.168,15.999-16V79.997
			C399.987,71.166,392.836,63.998,383.988,63.998z"/>
	</g>
</g>
<g>
	<g>
		<path d="M383.988,191.994c-8.848,0-16,7.168-16,16v15.999c0,8.832,7.152,16,16,16c8.848,0,15.999-7.168,15.999-16v-15.999
			C399.987,199.162,392.836,191.994,383.988,191.994z"/>
	</g>
</g>
<g>
	<g>
		<path d="M127.996,63.998c-8.848,0-16,7.168-16,16v79.997c0,8.832,7.152,16,16,16c8.848,0,15.999-7.168,15.999-16V79.997
			C143.995,71.166,136.844,63.998,127.996,63.998z"/>
	</g>
</g>
<g>
	<g>
		<path d="M127.996,191.994c-8.848,0-16,7.168-16,16v15.999c0,8.832,7.152,16,16,16c8.848,0,15.999-7.168,15.999-16v-15.999
			C143.995,199.162,136.844,191.994,127.996,191.994z"/>
	</g>
</g>
<g>
	<g>
		<path d="M191.994,63.998c-8.848,0-16,7.168-16,16v79.997c0,8.832,7.152,16,16,16s16-7.168,16-16V79.997
			C207.994,71.166,200.842,63.998,191.994,63.998z"/>
	</g>
</g>
<g>
	<g>
		<path d="M191.994,191.994c-8.848,0-16,7.168-16,16v15.999c0,8.832,7.152,16,16,16s16-7.168,16-16v-15.999
			C207.994,199.162,200.842,191.994,191.994,191.994z"/>
	</g>
</g>
<g>
	<g>
		<path d="M255.992,63.998c-8.848,0-16,7.168-16,16v79.997c0,8.832,7.152,16,16,16s16-7.168,16-16V79.997
			C271.992,71.166,264.84,63.998,255.992,63.998z"/>
	</g>
</g>
<g>
	<g>
		<path d="M255.992,191.994c-8.848,0-16,7.168-16,16v15.999c0,8.832,7.152,16,16,16s16-7.168,16-16v-15.999
			C271.992,199.162,264.84,191.994,255.992,191.994z"/>
	</g>
</g>
<g>
	<g>
		<path d="M319.99,63.998c-8.848,0-16,7.168-16,16v79.997c0,8.832,7.152,16,16,16s16-7.168,16-16V79.997
			C335.99,71.166,328.838,63.998,319.99,63.998z"/>
	</g>
</g>
<g>
	<g>
		<path d="M319.99,191.994c-8.848,0-16,7.168-16,16v15.999c0,8.832,7.152,16,16,16s16-7.168,16-16v-15.999
			C335.99,199.162,328.838,191.994,319.99,191.994z"/>
	</g>
</g>
</svg>